<?xml version="1.0" standalone="no"?>
<!DOCTYPE svg PUBLIC "-//W3C//DTD SVG 20010904//EN"
 "http://www.w3.org/TR/2001/REC-SVG-20010904/DTD/svg10.dtd">
<svg version="1.0" xmlns="http://www.w3.org/2000/svg"
 width="540.000000pt" height="540.000000pt" viewBox="0 0 540.000000 540.000000"
 preserveAspectRatio="xMidYMid meet">
<metadata>
Created by potrace 1.14, written by Peter Selinger 2001-2017
</metadata>
<g transform="translate(0.000000,540.000000) scale(0.100000,-0.100000)"
fill="#000000" stroke="none">
<path d="M1240 5230 l0 -160 175 0 175 0 0 160 0 160 -175 0 -175 0 0 -160z"/>
<path d="M1610 5230 l0 -160 175 0 175 0 0 160 0 160 -175 0 -175 0 0 -160z"/>
<path d="M1980 5230 l0 -160 180 0 180 0 0 160 0 160 -180 0 -180 0 0 -160z"/>
<path d="M2360 5230 l0 -160 175 0 175 0 0 160 0 160 -175 0 -175 0 0 -160z"/>
<path d="M2730 5230 l0 -160 175 0 175 0 0 160 0 160 -175 0 -175 0 0 -160z"/>
<path d="M3100 5230 l0 -160 175 0 175 0 0 160 0 160 -175 0 -175 0 0 -160z"/>
<path d="M3470 5230 l0 -160 180 0 180 0 0 160 0 160 -180 0 -180 0 0 -160z"/>
<path d="M3850 5230 l0 -160 175 0 175 0 0 160 0 160 -175 0 -175 0 0 -160z"/>
<path d="M860 4890 l0 -160 180 0 180 0 0 160 0 160 -180 0 -180 0 0 -160z"/>
<path d="M1240 4890 l0 -160 175 0 175 0 0 160 0 160 -175 0 -175 0 0 -160z"/>
<path d="M3850 4890 l0 -160 175 0 175 0 0 160 0 160 -175 0 -175 0 0 -160z"/>
<path d="M4220 4890 l0 -160 175 0 175 0 0 160 0 160 -175 0 -175 0 0 -160z"/>
<path d="M490 4550 l0 -160 175 0 175 0 0 160 0 160 -175 0 -175 0 0 -160z"/>
<path d="M860 4550 l0 -160 180 0 180 0 0 160 0 160 -180 0 -180 0 0 -160z"/>
<path d="M4220 4550 l0 -160 175 0 175 0 0 160 0 160 -175 0 -175 0 0 -160z"/>
<path d="M4590 4550 l0 -160 180 0 180 0 0 160 0 160 -180 0 -180 0 0 -160z"/>
<path d="M490 4215 l0 -155 175 0 175 0 0 155 0 155 -175 0 -175 0 0 -155z"/>
<path d="M4590 4215 l0 -155 180 0 180 0 0 155 0 155 -180 0 -180 0 0 -155z"/>
<path d="M490 3880 l0 -160 175 0 175 0 0 160 0 160 -175 0 -175 0 0 -160z"/>
<path d="M4590 3880 l0 -160 180 0 180 0 0 160 0 160 -180 0 -180 0 0 -160z"/>
<path d="M490 3540 l0 -160 175 0 175 0 0 160 0 160 -175 0 -175 0 0 -160z"/>
<path d="M4590 3540 l0 -160 180 0 180 0 0 160 0 160 -180 0 -180 0 0 -160z"/>
<path d="M120 3200 l0 -160 175 0 175 0 0 160 0 160 -175 0 -175 0 0 -160z"/>
<path d="M490 3200 l0 -160 175 0 175 0 0 160 0 160 -175 0 -175 0 0 -160z"/>
<path d="M860 3200 l0 -160 180 0 180 0 0 160 0 160 -180 0 -180 0 0 -160z"/>
<path d="M1240 3200 l0 -160 175 0 175 0 0 160 0 160 -175 0 -175 0 0 -160z"/>
<path d="M1610 3200 l0 -160 175 0 175 0 0 160 0 160 -175 0 -175 0 0 -160z"/>
<path d="M1980 3200 l0 -160 180 0 180 0 0 160 0 160 -180 0 -180 0 0 -160z"/>
<path d="M2360 3200 l0 -160 175 0 175 0 0 160 0 160 -175 0 -175 0 0 -160z"/>
<path d="M2730 3200 l0 -160 175 0 175 0 0 160 0 160 -175 0 -175 0 0 -160z"/>
<path d="M3100 3200 l0 -160 175 0 175 0 0 160 0 160 -175 0 -175 0 0 -160z"/>
<path d="M3470 3200 l0 -160 180 0 180 0 0 160 0 160 -180 0 -180 0 0 -160z"/>
<path d="M3850 3200 l0 -160 175 0 175 0 0 160 0 160 -175 0 -175 0 0 -160z"/>
<path d="M4220 3200 l0 -160 175 0 175 0 0 160 0 160 -175 0 -175 0 0 -160z"/>
<path d="M4590 3200 l0 -160 180 0 180 0 0 160 0 160 -180 0 -180 0 0 -160z"/>
<path d="M4970 3200 l0 -160 175 0 175 0 0 160 0 160 -175 0 -175 0 0 -160z"/>
<path d="M0 2865 l0 -155 50 0 50 0 0 155 0 155 -50 0 -50 0 0 -155z"/>
<path d="M1240 2865 l0 -155 175 0 175 0 0 155 0 155 -175 0 -175 0 0 -155z"/>
<path d="M1610 2865 l0 -155 175 0 175 0 0 155 0 155 -175 0 -175 0 0 -155z"/>
<path d="M1980 2865 l0 -155 180 0 180 0 0 155 0 155 -180 0 -180 0 0 -155z"/>
<path d="M2360 2865 l0 -155 175 0 175 0 0 155 0 155 -175 0 -175 0 0 -155z"/>
<path d="M2730 2865 l0 -155 175 0 175 0 0 155 0 155 -175 0 -175 0 0 -155z"/>
<path d="M3100 2865 l0 -155 175 0 175 0 0 155 0 155 -175 0 -175 0 0 -155z"/>
<path d="M3470 2865 l0 -155 180 0 180 0 0 155 0 155 -180 0 -180 0 0 -155z"/>
<path d="M3850 2865 l0 -155 175 0 175 0 0 155 0 155 -175 0 -175 0 0 -155z"/>
<path d="M5340 2865 l0 -155 30 0 30 0 0 155 0 155 -30 0 -30 0 0 -155z"/>
<path d="M0 2530 l0 -160 50 0 50 0 0 160 0 160 -50 0 -50 0 0 -160z"/>
<path d="M1240 2530 l0 -160 175 0 175 0 0 160 0 160 -175 0 -175 0 0 -160z"/>
<path d="M1610 2530 l0 -160 175 0 175 0 0 160 0 160 -175 0 -175 0 0 -160z"/>
<path d="M1980 2530 l0 -160 180 0 180 0 0 160 0 160 -180 0 -180 0 0 -160z"/>
<path d="M2360 2530 l0 -160 175 0 175 0 0 160 0 160 -175 0 -175 0 0 -160z"/>
<path d="M2730 2530 l0 -160 175 0 175 0 0 160 0 160 -175 0 -175 0 0 -160z"/>
<path d="M3100 2530 l0 -160 175 0 175 0 0 160 0 160 -175 0 -175 0 0 -160z"/>
<path d="M3470 2530 l0 -160 180 0 180 0 0 160 0 160 -180 0 -180 0 0 -160z"/>
<path d="M3850 2530 l0 -160 175 0 175 0 0 160 0 160 -175 0 -175 0 0 -160z"/>
<path d="M5340 2530 l0 -160 30 0 30 0 0 160 0 160 -30 0 -30 0 0 -160z"/>
<path d="M0 2190 l0 -160 50 0 50 0 0 160 0 160 -50 0 -50 0 0 -160z"/>
<path d="M120 2190 l0 -160 175 0 175 0 0 160 0 160 -175 0 -175 0 0 -160z"/>
<path d="M490 2190 l0 -160 175 0 175 0 0 160 0 160 -175 0 -175 0 0 -160z"/>
<path d="M860 2190 l0 -160 180 0 180 0 0 160 0 160 -180 0 -180 0 0 -160z"/>
<path d="M1240 2190 l0 -160 175 0 175 0 0 160 0 160 -175 0 -175 0 0 -160z"/>
<path d="M1610 2190 l0 -160 175 0 175 0 0 160 0 160 -175 0 -175 0 0 -160z"/>
<path d="M1980 2190 l0 -160 180 0 180 0 0 160 0 160 -180 0 -180 0 0 -160z"/>
<path d="M2360 2190 l0 -160 175 0 175 0 0 160 0 160 -175 0 -175 0 0 -160z"/>
<path d="M2730 2190 l0 -160 175 0 175 0 0 160 0 160 -175 0 -175 0 0 -160z"/>
<path d="M3100 2190 l0 -160 175 0 175 0 0 160 0 160 -175 0 -175 0 0 -160z"/>
<path d="M3470 2190 l0 -160 180 0 180 0 0 160 0 160 -180 0 -180 0 0 -160z"/>
<path d="M3850 2190 l0 -160 175 0 175 0 0 160 0 160 -175 0 -175 0 0 -160z"/>
<path d="M4220 2190 l0 -160 175 0 175 0 0 160 0 160 -175 0 -175 0 0 -160z"/>
<path d="M4590 2190 l0 -160 180 0 180 0 0 160 0 160 -180 0 -180 0 0 -160z"/>
<path d="M4970 2190 l0 -160 175 0 175 0 0 160 0 160 -175 0 -175 0 0 -160z"/>
<path d="M5340 2190 l0 -160 30 0 30 0 0 160 0 160 -30 0 -30 0 0 -160z"/>
<path d="M0 1850 l0 -160 50 0 50 0 0 160 0 160 -50 0 -50 0 0 -160z"/>
<path d="M120 1850 l0 -160 175 0 175 0 0 160 0 160 -175 0 -175 0 0 -160z"/>
<path d="M490 1850 l0 -160 175 0 175 0 0 160 0 160 -175 0 -175 0 0 -160z"/>
<path d="M860 1850 l0 -160 180 0 180 0 0 160 0 160 -180 0 -180 0 0 -160z"/>
<path d="M1240 1850 l0 -160 175 0 175 0 0 160 0 160 -175 0 -175 0 0 -160z"/>
<path d="M1610 1850 l0 -160 175 0 175 0 0 160 0 160 -175 0 -175 0 0 -160z"/>
<path d="M1980 1850 l0 -160 180 0 180 0 0 160 0 160 -180 0 -180 0 0 -160z"/>
<path d="M2360 1850 l0 -160 175 0 175 0 0 160 0 160 -175 0 -175 0 0 -160z"/>
<path d="M2730 1850 l0 -160 175 0 175 0 0 160 0 160 -175 0 -175 0 0 -160z"/>
<path d="M3100 1850 l0 -160 175 0 175 0 0 160 0 160 -175 0 -175 0 0 -160z"/>
<path d="M3470 1850 l0 -160 180 0 180 0 0 160 0 160 -180 0 -180 0 0 -160z"/>
<path d="M3850 1850 l0 -160 175 0 175 0 0 160 0 160 -175 0 -175 0 0 -160z"/>
<path d="M4220 1850 l0 -160 175 0 175 0 0 160 0 160 -175 0 -175 0 0 -160z"/>
<path d="M4590 1850 l0 -160 180 0 180 0 0 160 0 160 -180 0 -180 0 0 -160z"/>
<path d="M4970 1850 l0 -160 175 0 175 0 0 160 0 160 -175 0 -175 0 0 -160z"/>
<path d="M5340 1850 l0 -160 30 0 30 0 0 160 0 160 -30 0 -30 0 0 -160z"/>
<path d="M0 1515 l0 -155 50 0 50 0 0 155 0 155 -50 0 -50 0 0 -155z"/>
<path d="M120 1515 l0 -155 175 0 175 0 0 155 0 155 -175 0 -175 0 0 -155z"/>
<path d="M490 1515 l0 -155 175 0 175 0 0 155 0 155 -175 0 -175 0 0 -155z"/>
<path d="M860 1515 l0 -155 180 0 180 0 0 155 0 155 -180 0 -180 0 0 -155z"/>
<path d="M1240 1515 l0 -155 175 0 175 0 0 155 0 155 -175 0 -175 0 0 -155z"/>
<path d="M1610 1515 l0 -155 175 0 175 0 0 155 0 155 -175 0 -175 0 0 -155z"/>
<path d="M1980 1515 l0 -155 180 0 180 0 0 155 0 155 -180 0 -180 0 0 -155z"/>
<path d="M2360 1515 l0 -155 175 0 175 0 0 155 0 155 -175 0 -175 0 0 -155z"/>
<path d="M2730 1515 l0 -155 175 0 175 0 0 155 0 155 -175 0 -175 0 0 -155z"/>
<path d="M3100 1515 l0 -155 175 0 175 0 0 155 0 155 -175 0 -175 0 0 -155z"/>
<path d="M3470 1515 l0 -155 180 0 180 0 0 155 0 155 -180 0 -180 0 0 -155z"/>
<path d="M3850 1515 l0 -155 175 0 175 0 0 155 0 155 -175 0 -175 0 0 -155z"/>
<path d="M4220 1515 l0 -155 175 0 175 0 0 155 0 155 -175 0 -175 0 0 -155z"/>
<path d="M4590 1515 l0 -155 180 0 180 0 0 155 0 155 -180 0 -180 0 0 -155z"/>
<path d="M4970 1515 l0 -155 175 0 175 0 0 155 0 155 -175 0 -175 0 0 -155z"/>
<path d="M5340 1515 l0 -155 30 0 30 0 0 155 0 155 -30 0 -30 0 0 -155z"/>
<path d="M0 1180 l0 -160 50 0 50 0 0 160 0 160 -50 0 -50 0 0 -160z"/>
<path d="M120 1180 l0 -160 175 0 175 0 0 160 0 160 -175 0 -175 0 0 -160z"/>
<path d="M490 1180 l0 -160 175 0 175 0 0 160 0 160 -175 0 -175 0 0 -160z"/>
<path d="M860 1180 l0 -160 180 0 180 0 0 160 0 160 -180 0 -180 0 0 -160z"/>
<path d="M1240 1180 l0 -160 175 0 175 0 0 160 0 160 -175 0 -175 0 0 -160z"/>
<path d="M1610 1180 l0 -160 175 0 175 0 0 160 0 160 -175 0 -175 0 0 -160z"/>
<path d="M1980 1180 l0 -160 180 0 180 0 0 160 0 160 -180 0 -180 0 0 -160z"/>
<path d="M2360 1180 l0 -160 175 0 175 0 0 160 0 160 -175 0 -175 0 0 -160z"/>
<path d="M2730 1180 l0 -160 175 0 175 0 0 160 0 160 -175 0 -175 0 0 -160z"/>
<path d="M3100 1180 l0 -160 175 0 175 0 0 160 0 160 -175 0 -175 0 0 -160z"/>
<path d="M3470 1180 l0 -160 180 0 180 0 0 160 0 160 -180 0 -180 0 0 -160z"/>
<path d="M3850 1180 l0 -160 175 0 175 0 0 160 0 160 -175 0 -175 0 0 -160z"/>
<path d="M4220 1180 l0 -160 175 0 175 0 0 160 0 160 -175 0 -175 0 0 -160z"/>
<path d="M4590 1180 l0 -160 180 0 180 0 0 160 0 160 -180 0 -180 0 0 -160z"/>
<path d="M4970 1180 l0 -160 175 0 175 0 0 160 0 160 -175 0 -175 0 0 -160z"/>
<path d="M5340 1180 l0 -160 30 0 30 0 0 160 0 160 -30 0 -30 0 0 -160z"/>
<path d="M0 840 l0 -160 50 0 50 0 0 160 0 160 -50 0 -50 0 0 -160z"/>
<path d="M120 840 l0 -160 175 0 175 0 0 160 0 160 -175 0 -175 0 0 -160z"/>
<path d="M490 840 l0 -160 175 0 175 0 0 160 0 160 -175 0 -175 0 0 -160z"/>
<path d="M860 840 l0 -160 180 0 180 0 0 160 0 160 -180 0 -180 0 0 -160z"/>
<path d="M1240 840 l0 -160 175 0 175 0 0 160 0 160 -175 0 -175 0 0 -160z"/>
<path d="M1610 840 l0 -160 175 0 175 0 0 160 0 160 -175 0 -175 0 0 -160z"/>
<path d="M1980 840 l0 -160 180 0 180 0 0 160 0 160 -180 0 -180 0 0 -160z"/>
<path d="M2360 840 l0 -160 175 0 175 0 0 160 0 160 -175 0 -175 0 0 -160z"/>
<path d="M2730 840 l0 -160 175 0 175 0 0 160 0 160 -175 0 -175 0 0 -160z"/>
<path d="M3100 840 l0 -160 175 0 175 0 0 160 0 160 -175 0 -175 0 0 -160z"/>
<path d="M3470 840 l0 -160 180 0 180 0 0 160 0 160 -180 0 -180 0 0 -160z"/>
<path d="M3850 840 l0 -160 175 0 175 0 0 160 0 160 -175 0 -175 0 0 -160z"/>
<path d="M4220 840 l0 -160 175 0 175 0 0 160 0 160 -175 0 -175 0 0 -160z"/>
<path d="M4590 840 l0 -160 180 0 180 0 0 160 0 160 -180 0 -180 0 0 -160z"/>
<path d="M4970 840 l0 -160 175 0 175 0 0 160 0 160 -175 0 -175 0 0 -160z"/>
<path d="M5340 840 l0 -160 30 0 30 0 0 160 0 160 -30 0 -30 0 0 -160z"/>
<path d="M0 500 l0 -160 50 0 50 0 0 160 0 160 -50 0 -50 0 0 -160z"/>
<path d="M120 500 l0 -160 175 0 175 0 0 160 0 160 -175 0 -175 0 0 -160z"/>
<path d="M490 500 l0 -160 175 0 175 0 0 160 0 160 -175 0 -175 0 0 -160z"/>
<path d="M860 500 l0 -160 180 0 180 0 0 160 0 160 -180 0 -180 0 0 -160z"/>
<path d="M1240 500 l0 -160 175 0 175 0 0 160 0 160 -175 0 -175 0 0 -160z"/>
<path d="M1610 500 l0 -160 175 0 175 0 0 160 0 160 -175 0 -175 0 0 -160z"/>
<path d="M1980 500 l0 -160 180 0 180 0 0 160 0 160 -180 0 -180 0 0 -160z"/>
<path d="M2360 500 l0 -160 175 0 175 0 0 160 0 160 -175 0 -175 0 0 -160z"/>
<path d="M2730 500 l0 -160 175 0 175 0 0 160 0 160 -175 0 -175 0 0 -160z"/>
<path d="M3100 500 l0 -160 175 0 175 0 0 160 0 160 -175 0 -175 0 0 -160z"/>
<path d="M3470 500 l0 -160 180 0 180 0 0 160 0 160 -180 0 -180 0 0 -160z"/>
<path d="M3850 500 l0 -160 175 0 175 0 0 160 0 160 -175 0 -175 0 0 -160z"/>
<path d="M4220 500 l0 -160 175 0 175 0 0 160 0 160 -175 0 -175 0 0 -160z"/>
<path d="M4590 500 l0 -160 180 0 180 0 0 160 0 160 -180 0 -180 0 0 -160z"/>
<path d="M4970 500 l0 -160 175 0 175 0 0 160 0 160 -175 0 -175 0 0 -160z"/>
<path d="M5340 500 l0 -160 30 0 30 0 0 160 0 160 -30 0 -30 0 0 -160z"/>
<path d="M0 165 l0 -155 50 0 50 0 0 155 0 155 -50 0 -50 0 0 -155z"/>
<path d="M120 165 l0 -155 175 0 175 0 0 155 0 155 -175 0 -175 0 0 -155z"/>
<path d="M490 165 l0 -155 175 0 175 0 0 155 0 155 -175 0 -175 0 0 -155z"/>
<path d="M860 165 l0 -155 180 0 180 0 0 155 0 155 -180 0 -180 0 0 -155z"/>
<path d="M4220 165 l0 -155 175 0 175 0 0 155 0 155 -175 0 -175 0 0 -155z"/>
<path d="M4590 165 l0 -155 180 0 180 0 0 155 0 155 -180 0 -180 0 0 -155z"/>
<path d="M4970 165 l0 -155 175 0 175 0 0 155 0 155 -175 0 -175 0 0 -155z"/>
<path d="M5340 165 l0 -155 30 0 30 0 0 155 0 155 -30 0 -30 0 0 -155z"/>
</g>
</svg>
